<?xml version="1.0" encoding="utf-8"?>
<!-- Generator: Adobe Illustrator 18.0.0, SVG Export Plug-In . SVG Version: 6.00 Build 0)  -->
<!DOCTYPE svg PUBLIC "-//W3C//DTD SVG 1.1//EN" "http://www.w3.org/Graphics/SVG/1.1/DTD/svg11.dtd">
<svg version="1.1" id="图层_1" xmlns="http://www.w3.org/2000/svg" xmlns:xlink="http://www.w3.org/1999/xlink" x="0px" y="0px"
	 viewBox="0 0 217 88" enable-background="new 0 0 217 88" xml:space="preserve">
<g>
	<path fill="#338939" d="M24.8,16.2c0.2,0,0.4,0.1,0.6,0.1c3.8,0.1,7.3,1,10.6,2.8c2.1,1.1,3.9,2.4,5.6,4c0.1,0.1,0.1,0.1,0.1,0.1
		c-2.1,2.1-4.2,4.2-6.3,6.3c-4.4-4-9.5-5.3-15.3-3.6c-4.2,1.3-7.2,4-9.2,7.9c-3.8,7.7-0.5,17.2,7.6,20.8c7.3,3.2,15.1,0,18.4-4.9
		c-0.2,0-0.4,0-0.7,0c-3.6,0-7.2,0-10.9,0c-0.5,0-0.7-0.2-0.6-0.7c0-2.6,0-5.2,0-7.8c0-0.4,0.1-0.6,0.6-0.6c7.7,0,15.4,0,23.1,0
		c0.4,0,0.6,0.1,0.6,0.6c0,7.7,0,15.4,0,23.1c0,0.4-0.1,0.6-0.5,0.6c-2.6,0-5.3,0-7.9,0c-0.4,0-0.6-0.1-0.6-0.5c0-1.4,0-2.8,0-4.1
		c0-0.2,0-0.4,0-0.7c-0.3,0.2-0.5,0.3-0.6,0.4c-3.4,2.6-7.1,4.2-11.3,4.7c-7.9,1-14.8-1.3-20.6-6.9c-3.8-3.7-6-8.3-6.9-13.5
		c-0.2-1-0.2-1.9-0.2-2.9c0-0.2-0.1-0.5-0.1-0.7c0-0.1,0-0.2,0-0.3c0-0.2,0.1-0.4,0.1-0.6c0-2.5,0.5-4.9,1.3-7.3
		c2.2-6,6.1-10.5,11.7-13.5c3.3-1.7,6.8-2.7,10.5-2.7c0.2,0,0.4-0.1,0.6-0.1C24.6,16.2,24.7,16.2,24.8,16.2z"/>
	<g>
		<g>
			<path fill="#3E3939" d="M91.9,40.7c-2.9-0.8-5.8-0.8-8.7,0c-2.9,0.8-5.2,2.5-6.6,5.3c-1.8,3.5-2,7.1-1.1,10.9
				c1.2,4.5,4,7.4,8.6,8.4c0.8,0.2,1.6,0.3,2.4,0.4c0.7,0,1.4,0,2.1,0c0.7-0.1,1.4-0.2,2.1-0.3c4-0.8,6.8-2.9,8.3-6.7
				c1.5-3.7,1.5-7.5,0-11.3C97.8,43.9,95.4,41.7,91.9,40.7z M92.2,58.3c-0.6,1.5-1.7,2.7-3.4,3.1c-2.6,0.6-4.7-0.5-5.8-3
				c-0.8-1.7-1.1-3.6-1-5.4c0-2.2,0.3-4.3,1.3-6.2c1.8-3.4,5.9-3.1,7.7-1.3c1,1.1,1.6,2.4,1.9,3.8C93.5,52.4,93.4,55.4,92.2,58.3z"
				/>
			<path fill="#3E3939" d="M165.5,61.4c-0.9,0-1.5-0.5-1.7-1.4c-0.1-0.3-0.1-0.7-0.1-1.1c0-1.8,0-3.6,0-5.4c0-2.4,0-4.8-0.1-7.2
				c-0.1-2-1-3.6-2.7-4.6c-0.8-0.5-1.6-0.9-2.5-1.1c-4.4-1.1-8.6-0.4-12.8,1c-0.1,0-0.2,0.2-0.2,0.3c0,1.4,0,2.8,0,4.2
				c0.2-0.1,0.3-0.1,0.4-0.2c2.2-1.2,4.6-1.9,7.1-1.9c1.1,0,2.1,0.1,3.1,0.7c0.5,0.3,0.9,0.7,1.1,1.2c0.6,1.3,0.3,2.8,0.4,4.2
				c-0.6,0-1,0-1.5,0c-2.2,0-4.4,0.2-6.6,0.8c-3.7,1.1-6.3,4.1-6.2,8c0.1,2.8,1.9,5.4,4.7,6.2c0.6,0.2,1.2,0.3,1.8,0.4
				c0.5,0,0.9,0,1.4,0c0.5-0.1,0.9-0.2,1.4-0.3c1.7-0.4,3.1-1.3,4.4-2.4c0.1-0.1,0.3-0.3,0.4-0.4c0.2-0.2,0.4-0.2,0.5,0.1
				c0.7,1.9,2.1,2.7,4,2.9c0.1,0,0.2,0.1,0.3,0.1c0.4,0,0.9,0,1.3,0c0.1,0,0.3-0.1,0.4-0.1c0.7-0.1,1.5-0.3,2.2-0.4
				c0.1,0,0.3-0.2,0.4-0.3c0-1.1,0-2.2,0-3.3C166.1,61.4,165.8,61.4,165.5,61.4z M157.4,56.5c0,0.7,0,1.4,0,2.1
				c0,0.2-0.1,0.4-0.2,0.5c-1.1,1-2.4,1.8-3.9,2.1c-1.4,0.2-2.8-0.4-3.5-1.6c-0.7-1.2-0.4-2.8,0.6-3.9c0.9-0.9,2.1-1.4,3.3-1.5
				c1.1-0.1,2.2-0.1,3.3-0.2c0.4,0,0.5,0.1,0.5,0.5C157.4,55.1,157.4,55.8,157.4,56.5z"/>
			<path fill="#3E3939" d="M184.7,62.3c0-0.4,0-0.8,0-1.1c-1,0-1.9,0.1-2.8,0.1c-1.5-0.1-2.4-1-2.7-2.4c-0.1-0.7-0.2-1.4-0.2-2.1
				c0-3.8,0-7.6,0-11.4c0-0.2,0-0.4,0-0.6c0.2,0,0.4,0,0.6,0c1.4,0,2.8,0,4.1,0c0.3,0,0.5-0.1,0.5-0.5c0-0.8,0-1.6,0-2.5
				c0-0.4,0-0.7,0-1.1c-4.9,0-9.7,0-14.5,0c0,1.3,0,2.6,0,4c0.9,0,1.8,0,2.7,0c0,0.3,0,0.5,0,0.7c0,4.6,0,9.1,0.1,13.7
				c0.1,3.2,2.1,5.5,5.3,6.1c0.7,0.1,1.4,0.2,2.1,0.3c0.5,0,0.9,0,1.4,0c0.9-0.2,1.7-0.4,2.6-0.5c0.5-0.1,0.7-0.3,0.6-0.8
				C184.7,63.6,184.7,62.9,184.7,62.3z"/>
			<path fill="#3E3939" d="M197.7,58.7c-0.1-0.3-0.1-0.7-0.1-1c0-4.2,0-8.3,0-12.5c0-0.1,0-0.2,0-0.4c1.7,0,3.4,0,5.1,0
				c0-1.4,0-2.7,0-4c-4.8,0-9.6,0-14.4,0c0,1.3,0,2.7,0,4c0.7,0,1.4,0,2,0c0.6,0,0.6,0,0.6,0.7c0,4,0,7.9,0,11.9
				c0,0.7,0,1.4,0.1,2.2c0.3,3.2,2.2,5.2,5.3,5.8c0.7,0.1,1.4,0.2,2,0.3c0.5,0,1,0,1.5,0c1.1,0,2.2,0,3.2,0c0-0.2,0-0.5,0-0.7
				c0-1.3,0-2.6,0-3.9c-0.6,0.1-1.2,0.3-1.8,0.3C199.5,61.3,198,60.7,197.7,58.7z"/>
			<path fill="#3E3939" d="M135.9,40.7c-0.5,0-0.7,0.1-0.8,0.6c-1.3,4.3-2.6,8.6-3.9,12.9c-0.4,1.2-0.7,2.4-1.1,3.6c0,0-0.1,0-0.1,0
				c0-0.2-0.1-0.3-0.1-0.5c-1.4-5.3-2.9-10.6-4.3-16c-0.1-0.5-0.3-0.6-0.8-0.6c-1.4,0-2.9,0-4.3,0c-0.5,0-0.7,0.1-0.9,0.7
				c-1.6,5.3-3.2,10.6-4.7,15.9c0,0.1-0.1,0.3-0.2,0.5c-0.1-0.2-0.1-0.4-0.2-0.5c-1.5-5.4-3-10.7-4.5-16.1c-0.1-0.3-0.2-0.5-0.6-0.5
				c-1.4,0-2.9,0-4.3,0c-0.4,0-0.8,0-1.2,0c0,0.2,0,0.3,0.1,0.3c2.2,7.8,4.4,15.7,6.5,23.5c0.1,0.3,0.3,0.4,0.6,0.4
				c1.7,0,3.4,0,5.1,0c0.5,0,0.7-0.1,0.9-0.7c1.5-5.1,3-10.3,4.6-15.4c0.1-0.2,0.1-0.3,0.2-0.6c0.1,0.3,0.1,0.4,0.2,0.6
				c1.4,5.2,2.8,10.4,4.1,15.6c0.1,0.4,0.2,0.5,0.6,0.5c1.7,0,3.5,0,5.2,0c0.4,0,0.6-0.1,0.7-0.5c2.2-7.3,4.3-14.6,6.5-21.9
				c0.2-0.6,0.3-1.2,0.5-1.9C138.4,40.7,137.2,40.7,135.9,40.7z"/>
			<path fill="#3E3939" d="M71.6,40.2c-0.8,0-1.6,0-2.4,0.2c-2.6,0.6-4.4,2.2-5.8,4.4c-0.1,0.1-0.2,0.3-0.2,0.4c0,0-0.1,0-0.1,0
				c0-1.5,0-2.9,0-4.4c-2.1,0-4.1,0-6.2,0c-0.4,0-0.3,0.3-0.3,0.5c0,7.8,0,15.5,0,23.3c0,0.4,0.1,0.5,0.5,0.5c1.8,0,3.7,0,5.5,0
				c0.1,0,0.3,0,0.5,0c0-0.2,0-0.4,0-0.6c0-4.4,0-8.9,0-13.3c0-1.2,0.3-2.1,1.1-2.9c0.1-0.1,0.2-0.2,0.3-0.3c1.9-1.9,4.2-2.6,6.8-2
				c0.3,0.1,0.5,0.1,0.8,0.2c0-0.2,0-0.4,0-0.5c0-1.6,0-3.2,0-4.7C72.1,40.4,72,40.2,71.6,40.2z"/>
			<path fill="#3E3939" d="M202.3,29.4c-0.1,0.6-0.4,1.2-0.5,1.8c-0.3-0.7-0.5-1.3-0.7-2c-0.1-0.3-0.1-0.5-0.5-0.5
				c-0.4,0-0.5,0.2-0.6,0.5c-0.2,0.7-0.4,1.3-0.6,2c-0.3-0.6-0.5-1.2-0.6-1.8c-0.2-0.7-0.2-0.7-1-0.6c0,0,0,0.1,0,0.1
				c0.3,0.9,0.5,1.8,0.8,2.8c0.2,0.8,0.2,0.8,1,0.7c0,0,0.1,0,0.1,0c0.2-0.8,0.5-1.6,0.7-2.4c0,0,0.1,0,0.1,0
				c0.2,0.8,0.5,1.6,0.7,2.4c0.9,0.1,0.9,0.1,1.1-0.7c0.1-0.3,0.2-0.5,0.2-0.8c0.2-0.7,0.5-1.4,0.7-2c0,0,0-0.1,0-0.1
				C202.6,28.6,202.4,28.9,202.3,29.4z"/>
			<path fill="#3E3939" d="M152.7,30.4c0-0.5,0.3-0.8,0.7-1c0.3-0.2,0.7,0,0.7,0.4c0.1,0.5,0,1.1,0.1,1.6c0,0.3,0,0.7,0,1
				c0.3,0,0.6,0,0.9,0c0-0.7,0-1.3,0-2c0-0.5,0.2-0.8,0.6-1c0.4-0.2,0.7,0,0.7,0.4c0,0.6,0,1.3,0,1.9c0,0.2,0,0.4,0.1,0.6
				c0.3,0,0.6,0,0.8,0c0-1,0.1-1.9,0-2.9c-0.1-0.8-1-1.2-1.7-0.6c-0.2,0.1-0.3,0.3-0.5,0.5c-0.7-1-1.1-1-2.4-0.1
				c0-0.2,0-0.4-0.1-0.5c-0.3,0-0.6,0-0.8,0c0,1.2,0,2.4,0,3.6c0.3,0,0.5,0,0.8,0C152.7,31.8,152.7,31.1,152.7,30.4z"/>
			<path fill="#3E3939" d="M119.3,32.3c0,0,0.1,0,0.1,0c0.7,0.2,1.2-0.1,1.6-0.6c0,0.4,0,0.9-0.3,1.1c-0.6,0.6-1.3,0.2-2,0.1
				c0,0.2,0,0.4-0.1,0.7c0.6,0,1.2,0.2,1.8,0.1c0.6,0,1.3-0.3,1.3-1c0.1-1.3,0.1-2.7,0.2-4.1c-0.5,0.1-0.8,0.2-1.2,0.2
				c-0.2-0.1-0.6-0.2-1-0.2c-0.7,0-1.3,0.6-1.4,1.5C118.3,31.2,118.7,32.1,119.3,32.3z M119.6,29.8c0.1-0.4,0.4-0.6,0.9-0.5
				c0.4,0.1,0.7,0.3,0.6,0.8c0,0.1,0,0.2,0,0.4c0.1,0.4,0,0.9-0.5,1.1c-0.4,0.2-0.9,0.1-1-0.4C119.5,30.7,119.5,30.2,119.6,29.8z"/>
			<path fill="#3E3939" d="M76.9,31.7c0.1-0.2,0.1-0.5,0.2-0.7c0.1-0.3,0.2-0.6,0.3-1c0,0,0.1,0,0.1,0c0.2,0.8,0.4,1.6,0.7,2.4
				c0.3,0,0.6,0,0.9,0c0.4-1.2,0.7-2.4,1.1-3.6c-0.4-0.1-0.6-0.1-0.7,0.4c-0.2,0.7-0.4,1.4-0.6,2c0,0-0.1,0-0.1,0
				c-0.2-0.7-0.4-1.3-0.5-2c-0.1-0.3-0.1-0.5-0.5-0.5c-0.4,0-0.5,0.1-0.6,0.4c-0.2,0.7-0.4,1.4-0.6,2.1c-0.3-0.6-0.5-1.2-0.6-1.9
				c-0.2-0.7-0.3-0.7-1-0.5c0.3,1.2,0.7,2.4,1,3.6C76.7,32.5,76.7,32.5,76.9,31.7z"/>
			<path fill="#3E3939" d="M57.6,32.1c0.2,0.1,0.2,0.1,0.3,0.2c0.8,0.5,1.7,0.2,2.1-0.7c0.2-0.5,0.2-1.1,0.2-1.6
				c0-0.6-0.3-1.1-0.9-1.3c-0.6-0.2-1.1,0-1.5,0.5c0,0-0.1,0-0.2,0.1c0-0.2-0.1-0.4-0.1-0.5c-0.3,0-0.6,0-0.8,0c0,1.7,0,3.3,0,5
				c0.3,0,0.6,0,0.9,0C57.6,33.2,57.6,32.7,57.6,32.1z M57.5,30.7c0-0.4,0-0.8,0.4-1.1c0.5-0.3,1-0.2,1.1,0.3c0.1,0.5,0.1,1,0,1.5
				c-0.1,0.4-0.4,0.6-0.8,0.5c-0.4-0.1-0.7-0.3-0.7-0.8C57.6,31,57.5,30.9,57.5,30.7z"/>
			<path fill="#3E3939" d="M145.9,30.6c0-1.2-0.7-2-1.9-2c-1.2,0-1.9,0.7-2,1.9c0,1.2,0.7,2,1.9,2C145.2,32.5,145.9,31.8,145.9,30.6
				z M143.4,31.6c-0.3-0.6-0.3-1.3,0-1.9c0.3-0.6,1-0.6,1.3,0c0.1,0.3,0.2,0.6,0.3,1c-0.1,0.3-0.2,0.7-0.3,1
				C144.4,32.1,143.6,32.1,143.4,31.6z"/>
			<path fill="#3E3939" d="M67.6,32.5c1.2,0,1.9-0.7,1.9-1.9c0-1.2-0.7-1.9-1.9-1.9c-1.2,0-1.9,0.8-1.9,1.9
				C65.7,31.8,66.4,32.5,67.6,32.5z M66.8,29.9c0.1-0.4,0.3-0.6,0.7-0.6c0.4,0,0.7,0.3,0.8,0.6c0.1,0.2,0.1,0.5,0.1,0.7
				c0,0.2-0.1,0.4-0.1,0.6C68.3,31.6,68,32,67.6,32c-0.5,0-0.7-0.3-0.8-0.8C66.7,30.8,66.7,30.3,66.8,29.9z"/>
			<path fill="#3E3939" d="M165,28.7c-1.2,0-1.9,0.8-1.9,1.9c0,1.2,0.8,1.9,1.9,1.9c1.2,0,1.9-0.7,1.9-1.9
				C166.9,29.4,166.2,28.7,165,28.7z M165.8,31.3c-0.1,0.4-0.4,0.7-0.8,0.7c-0.4,0-0.7-0.3-0.8-0.7c-0.1-0.5,0-1,0-1.5
				c0.1-0.4,0.3-0.6,0.7-0.6c0.4,0,0.7,0.2,0.8,0.6c0.1,0.2,0.1,0.5,0.2,0.7C165.9,30.8,165.9,31,165.8,31.3z"/>
			<path fill="#3E3939" d="M190.5,32.5c1.2,0,1.9-0.7,1.9-2c0-1.2-0.7-1.9-1.9-1.9c-1.2,0-1.9,0.8-1.9,1.9
				C188.6,31.8,189.4,32.5,190.5,32.5z M189.9,29.7c0.1-0.2,0.4-0.4,0.7-0.4c0.2,0,0.5,0.2,0.7,0.4c0.3,0.5,0.3,1.1,0.1,1.7
				c-0.1,0.3-0.4,0.5-0.7,0.6c-0.4,0.1-0.7-0.2-0.8-0.6c-0.1-0.3-0.1-0.5-0.2-0.8C189.7,30.3,189.7,29.9,189.9,29.7z"/>
			<path fill="#3E3939" d="M109.6,32.4c0.3,0,0.6,0,0.9,0c0-0.7,0-1.4,0-2c0-0.5,0.5-1,0.9-0.9c0.6,0,0.5,0.5,0.5,0.9
				c0,0.1,0,0.2,0,0.3c0,0.6,0,1.2,0,1.8c0.4,0,0.6,0,0.9,0c0-0.9,0-1.8,0-2.6c0-0.5-0.1-0.9-0.6-1c-0.5-0.2-0.9,0-1.3,0.3
				c-0.1,0.1-0.2,0.2-0.4,0.4c0-0.3-0.1-0.4-0.1-0.6c-0.9-0.1-0.9-0.1-0.9,0.7c0,0.8,0,1.6,0,2.4C109.5,32.1,109.6,32.3,109.6,32.4z
				"/>
			<path fill="#3E3939" d="M87.2,32.5c0.5,0,1-0.1,1.5-0.1c0-0.3,0-0.5,0-0.7c-1.6,0.3-2.3,0-2.1-1c0.7,0,1.4,0,2.2,0
				c0-0.3,0-0.6-0.1-0.8c-0.1-0.7-0.5-1.1-1.1-1.2c-0.7-0.1-1.3,0.1-1.7,0.7C85.1,30.4,85.4,32.4,87.2,32.5z M87.2,29.2
				c0.4,0,0.6,0.3,0.6,1c-0.4,0-0.8,0-1.3,0C86.5,29.7,86.8,29.3,87.2,29.2z"/>
			<path fill="#3E3939" d="M134.5,29.3c0.4,0,0.3,0.3,0.3,0.5c0,0.6,0,1.2,0.1,1.9c0,0.4,0.3,0.7,0.7,0.8c0.3,0,0.7,0,1,0
				c0-0.2,0-0.4,0-0.5c-0.6,0-0.8-0.1-0.8-0.5c0-0.7,0-1.4,0-2.1c0.3,0,0.5,0,0.8-0.1c0-0.2,0-0.3,0-0.5c-0.3,0-0.5,0-0.7-0.1
				c0-0.2-0.1-0.5-0.1-0.7c-0.8,0-0.8,0-0.9,0.3c-0.1,0.2-0.2,0.3-0.3,0.5c-0.1,0-0.1,0-0.2,0C134.4,29,134.4,29.3,134.5,29.3z"/>
			<path fill="#3E3939" d="M95.5,30.5c0-0.5,0.3-0.9,0.8-1c0.2,0,0.3,0,0.5,0c0-0.3,0-0.5,0-0.7c-0.6-0.1-0.9,0.3-1.3,0.7
				c0-0.2,0-0.4-0.1-0.6c-0.3,0-0.6,0-0.9,0c0,1.2,0,2.4,0,3.6c0.3,0,0.6,0,0.9,0C95.5,31.7,95.5,31.1,95.5,30.5z"/>
			<path fill="#3E3939" d="M181.8,30.5c0-0.6,0.4-1,1-1.1c0.1,0,0.2,0,0.3,0c0-0.3,0-0.5,0-0.9c-0.5,0.3-0.9,0.5-1.3,0.7
				c0-0.1,0-0.3-0.1-0.4c-0.3,0-0.6,0-0.9,0c0,1.2,0,2.4,0,3.6c0.3,0,0.6,0,0.9,0C181.8,31.8,181.8,31.2,181.8,30.5z"/>
			<path fill="#3E3939" d="M173.8,30.4c0-0.5,0.3-0.8,0.7-0.9c0.2-0.1,0.4-0.1,0.7-0.1c0-0.2,0-0.5,0-0.9c-0.5,0.3-0.9,0.5-1.3,0.7
				c0-0.1,0-0.3,0-0.5c-0.3,0-0.6,0-0.9,0c0,1.2,0,2.4,0,3.6c0.3,0,0.6,0,0.9,0C173.8,31.8,173.8,31.1,173.8,30.4z"/>
			<path fill="#3E3939" d="M102.6,32.4c0.3,0,0.6,0,0.9,0c0-1.2,0-2.4,0-3.6c-0.3,0-0.6,0-0.9,0C102.6,30,102.6,31.2,102.6,32.4z"/>
			<path fill="#3E3939" d="M103.5,28c0-0.3,0-0.5,0-0.7c-0.3,0-0.6,0-0.9,0c0,0.3,0,0.5,0,0.7c0.2,0,0.3,0,0.4,0
				C103.2,28,103.4,28,103.5,28z"/>
		</g>
	</g>
</g>
</svg>
